<svg xmlns="http://www.w3.org/2000/svg" viewBox="0 0 512 512" role="img" aria-labelledby="title desc">
  <title id="title">Mini Program QR Placeholder</title>
  <desc id="desc">Placeholder image for mini program code.</desc>
  <rect width="512" height="512" rx="32" fill="#f6faf6"/>
  <rect x="32" y="32" width="448" height="448" rx="28" fill="#ffffff" stroke="#dbe8dd" stroke-width="8"/>
  <rect x="72" y="72" width="112" height="112" rx="12" fill="#1e2a22"/>
  <rect x="96" y="96" width="64" height="64" rx="8" fill="#ffffff"/>
  <rect x="328" y="72" width="112" height="112" rx="12" fill="#1e2a22"/>
  <rect x="352" y="96" width="64" height="64" rx="8" fill="#ffffff"/>
  <rect x="72" y="328" width="112" height="112" rx="12" fill="#1e2a22"/>
  <rect x="96" y="352" width="64" height="64" rx="8" fill="#ffffff"/>
  <rect x="232" y="232" width="32" height="32" rx="4" fill="#4d6a53"/>
  <rect x="280" y="232" width="32" height="32" rx="4" fill="#4d6a53"/>
  <rect x="232" y="280" width="32" height="32" rx="4" fill="#4d6a53"/>
  <rect x="296" y="296" width="32" height="32" rx="4" fill="#4d6a53"/>
  <rect x="344" y="232" width="32" height="32" rx="4" fill="#4d6a53"/>
  <rect x="344" y="280" width="32" height="32" rx="4" fill="#4d6a53"/>
  <rect x="232" y="344" width="32" height="32" rx="4" fill="#4d6a53"/>
  <rect x="280" y="376" width="32" height="32" rx="4" fill="#4d6a53"/>
  <rect x="344" y="376" width="64" height="16" rx="4" fill="#6c8d71"/>
  <text x="256" y="470" fill="#4d6a53" font-family="Arial, sans-serif" font-size="28" text-anchor="middle">Mini Program</text>
</svg>
